<?xml version="1.0" standalone="no"?>
<svg xmlns:xlink="http://www.w3.org/1999/xlink" id="wave" style="transform:rotate(180deg); transition: 0.3s" viewBox="0 0 1440 490" version="1.1" xmlns="http://www.w3.org/2000/svg"><defs><linearGradient id="sw-gradient-0" x1="0" x2="0" y1="1" y2="0"><stop stop-color="rgba(243, 106, 62, 1)" offset="0%"/><stop stop-color="rgba(255, 179, 11, 1)" offset="100%"/></linearGradient></defs><path style="transform:translate(0, 0px); opacity:1" fill="url(#sw-gradient-0)" d="M0,245L80,204.2C160,163,320,82,480,73.5C640,65,800,131,960,163.3C1120,196,1280,196,1440,179.7C1600,163,1760,131,1920,171.5C2080,212,2240,327,2400,383.8C2560,441,2720,441,2880,441C3040,441,3200,441,3360,400.2C3520,359,3680,278,3840,204.2C4000,131,4160,65,4320,106.2C4480,147,4640,294,4800,334.8C4960,376,5120,310,5280,236.8C5440,163,5600,82,5760,114.3C5920,147,6080,294,6240,294C6400,294,6560,147,6720,73.5C6880,0,7040,0,7200,49C7360,98,7520,196,7680,196C7840,196,8000,98,8160,98C8320,98,8480,196,8640,212.3C8800,229,8960,163,9120,171.5C9280,180,9440,261,9600,294C9760,327,9920,310,10080,310.3C10240,310,10400,327,10560,351.2C10720,376,10880,408,11040,400.2C11200,392,11360,343,11440,318.5L11520,294L11520,490L11440,490C11360,490,11200,490,11040,490C10880,490,10720,490,10560,490C10400,490,10240,490,10080,490C9920,490,9760,490,9600,490C9440,490,9280,490,9120,490C8960,490,8800,490,8640,490C8480,490,8320,490,8160,490C8000,490,7840,490,7680,490C7520,490,7360,490,7200,490C7040,490,6880,490,6720,490C6560,490,6400,490,6240,490C6080,490,5920,490,5760,490C5600,490,5440,490,5280,490C5120,490,4960,490,4800,490C4640,490,4480,490,4320,490C4160,490,4000,490,3840,490C3680,490,3520,490,3360,490C3200,490,3040,490,2880,490C2720,490,2560,490,2400,490C2240,490,2080,490,1920,490C1760,490,1600,490,1440,490C1280,490,1120,490,960,490C800,490,640,490,480,490C320,490,160,490,80,490L0,490Z"/></svg>